<?xml version="1.0" encoding="UTF-8"?>
<svg version="1.1" xmlns="http://www.w3.org/2000/svg" width="225" height="225">
<path d="M0 0 C74.25 0 148.5 0 225 0 C225 74.25 225 148.5 225 225 C150.75 225 76.5 225 0 225 C0 150.75 0 76.5 0 0 Z " fill="#FEFEFE" transform="translate(0,0)"/>
<path d="M0 0 C2.16638454 1.15094618 4.27526935 2.36811484 6.38110352 3.6262207 C7.11264648 4.0509668 7.84418945 4.47571289 8.59790039 4.91333008 C10.38574109 5.95331585 12.16553013 7.00712247 13.94360352 8.0637207 C13.47540102 12.62678398 13.47540102 12.62678398 11.14379883 14.54248047 C10.36101562 14.94265381 9.57823242 15.34282715 8.77172852 15.75512695 C7.89057373 16.21854492 7.00941895 16.68196289 6.1015625 17.15942383 C4.6621228 17.88548828 4.6621228 17.88548828 3.19360352 18.6262207 C1.16780501 19.6880049 -0.85690971 20.75185906 -2.88061523 21.81762695 C-4.43014893 22.62611084 -4.43014893 22.62611084 -6.01098633 23.45092773 C-10.60716022 25.88497653 -15.11442659 28.46490574 -19.61889648 31.0637207 C-20.46589111 31.55018066 -21.31288574 32.03664062 -22.18554688 32.5378418 C-23.91215828 33.52956167 -25.63831139 34.52207986 -27.36401367 35.51538086 C-32.15246201 38.26912944 -36.94840412 41.00976397 -41.74389648 43.7512207 C-42.64760986 44.2687793 -43.55132324 44.78633789 -44.48242188 45.31958008 C-45.31507568 45.79588867 -46.14772949 46.27219727 -47.00561523 46.76293945 C-47.74126709 47.18406006 -48.47691895 47.60518066 -49.23486328 48.0390625 C-50.49129501 48.74583692 -51.7670088 49.41902686 -53.05639648 50.0637207 C-53.05639648 66.8937207 -53.05639648 83.7237207 -53.05639648 101.0637207 C-44.81113775 105.62207112 -44.81113775 105.62207112 -36.5637207 110.17651367 C-31.2182104 113.13991122 -25.89483635 116.1157394 -20.68920898 119.3215332 C-19.92406982 119.79091309 -19.15893066 120.26029297 -18.37060547 120.74389648 C-16.99111612 121.6000002 -15.62014169 122.47004012 -14.25976562 123.35620117 C-11.41147661 125.12109422 -9.60955489 126.10485055 -6.21948242 125.8527832 C-2.77809763 124.99429635 -0.17930717 123.74116351 2.90844727 122.0012207 C4.0319458 121.3728833 5.15544434 120.7445459 6.31298828 120.09716797 C7.50250675 119.41960974 8.69187603 118.74178954 9.88110352 118.0637207 C11.09683023 117.37944519 12.31289612 116.6957719 13.52929688 116.01269531 C20.69813235 111.97374459 27.82434402 107.86174313 34.8046875 103.50317383 C38.74373595 101.0637207 38.74373595 101.0637207 40.94360352 101.0637207 C40.61360352 84.5637207 40.28360352 68.0637207 39.94360352 51.0637207 C36.58172852 52.9612207 33.21985352 54.8587207 29.75610352 56.8137207 C28.63631104 57.44262207 27.51651855 58.07152344 26.36279297 58.71948242 C21.19616678 61.62622072 16.063113 64.57231621 10.98657227 67.6340332 C10.05288818 68.18994141 9.1192041 68.74584961 8.15722656 69.31860352 C6.38252789 70.37815371 4.61656128 71.45250476 2.86083984 72.54321289 C-0.88245876 74.7603027 -3.25032548 76.04361264 -7.65795898 76.15356445 C-11.79693312 74.82623826 -15.24564654 73.02749908 -18.93139648 70.7512207 C-19.60686523 70.35999023 -20.28233398 69.96875977 -20.97827148 69.56567383 C-25.88384134 66.59573545 -25.88384134 66.59573545 -26.75219727 63.91845703 C-26.90277588 63.00036255 -26.90277588 63.00036255 -27.05639648 62.0637207 C-12.73430735 53.63577421 1.65370803 45.35451443 16.18188477 37.28637695 C19.76691397 35.29272502 23.327463 33.26734943 26.86157227 31.18481445 C27.95888672 30.54443237 27.95888672 30.54443237 29.07836914 29.89111328 C30.39196803 29.12167054 31.69990757 28.34243077 33.00024414 27.55078125 C36.85648341 25.30654976 39.51318965 24.3142146 43.94360352 25.0637207 C46.99281106 26.43140987 49.79416307 28.11628957 52.63110352 29.8762207 C53.76902344 30.55394531 53.76902344 30.55394531 54.92993164 31.24536133 C62.03220372 35.53932106 62.03220372 35.53932106 63.94360352 38.0637207 C64.34474182 41.23812866 64.34474182 41.23812866 64.37939453 45.2097168 C64.38947037 45.9336412 64.3995462 46.65756561 64.40992737 47.40342712 C64.43843931 49.79816097 64.44428554 52.19226516 64.44750977 54.5871582 C64.45714927 56.25241353 64.46724162 57.9176663 64.47776794 59.58291626 C64.49573779 63.07495004 64.50128818 66.56676113 64.49951172 70.05883789 C64.49920695 74.53052939 64.54014943 79.00079063 64.59182835 83.47214317 C64.62521158 86.91232845 64.63126871 90.35216887 64.62968254 93.79249954 C64.63322001 95.44074048 64.64647526 97.0889906 64.66967964 98.73707199 C64.6991347 101.04537301 64.69043536 103.35058301 64.67236328 105.65893555 C64.67877586 107.62725845 64.67877586 107.62725845 64.68531799 109.63534546 C63.65590656 114.39352235 61.90380279 115.34524368 57.94360352 118.0637207 C56.22637466 119.14656235 54.47690757 120.18014557 52.69750977 121.1574707 C51.70662354 121.7064502 50.7157373 122.25542969 49.69482422 122.82104492 C48.64254639 123.39612793 47.59026855 123.97121094 46.50610352 124.5637207 C44.2610466 125.80542875 42.0162611 127.04762762 39.77172852 128.2902832 C38.63541992 128.91708984 37.49911133 129.54389648 36.32836914 130.18969727 C31.1192992 133.07377263 25.93778438 136.00582443 20.75610352 138.9387207 C19.32923218 139.74043701 19.32923218 139.74043701 17.87353516 140.55834961 C13.75718981 142.87539491 9.66446898 145.21034159 5.64282227 147.6887207 C5.00691162 148.07431152 4.37100098 148.45990234 3.71582031 148.85717773 C2.09518173 149.84621602 0.48741542 150.85626779 -1.11889648 151.8684082 C-4.86300711 153.39194258 -7.32408196 153.3665929 -11.05639648 152.0637207 C-15.05489192 150.16744835 -18.85892578 147.97748198 -22.68139648 145.7512207 C-23.78225586 145.12183594 -24.88311523 144.49245117 -26.01733398 143.84399414 C-28.27947574 142.5493871 -30.53892149 141.25005787 -32.7956543 139.94604492 C-35.77915876 138.22376135 -38.77057228 136.51670739 -41.76733398 134.81762695 C-46.87534713 131.91974031 -51.96861326 128.99695244 -57.05639648 126.0637207 C-57.88300781 125.58854004 -58.70961914 125.11335938 -59.5612793 124.6237793 C-61.93793017 123.25516268 -64.31037222 121.8795571 -66.68139648 120.5012207 C-67.73907227 119.89262207 -67.73907227 119.89262207 -68.81811523 119.27172852 C-75.29743679 115.48138981 -75.29743679 115.48138981 -77.05639648 113.0637207 C-77.45753479 109.88931274 -77.45753479 109.88931274 -77.4921875 105.91772461 C-77.50226334 105.1938002 -77.51233917 104.46987579 -77.52272034 103.72401428 C-77.55123228 101.32928043 -77.55707851 98.93517625 -77.56030273 96.5402832 C-77.56994223 94.87502787 -77.58003459 93.20977511 -77.59056091 91.54452515 C-77.60853075 88.05249137 -77.61408115 84.56068028 -77.61230469 81.06860352 C-77.61199992 76.59691202 -77.65294239 72.12665078 -77.70462132 67.65529823 C-77.73800455 64.21511295 -77.74406168 60.77527254 -77.74247551 57.33494186 C-77.74601297 55.68670092 -77.75926823 54.03845081 -77.78247261 52.39036942 C-77.81192767 50.0820684 -77.80322833 47.7768584 -77.78515625 45.46850586 C-77.7894313 44.15629059 -77.79370636 42.84407532 -77.79811096 41.49209595 C-76.76877227 36.73425532 -75.01637124 35.78164848 -71.05639648 33.0637207 C-69.35100188 31.99219384 -67.61326884 30.97021187 -65.84545898 30.00512695 C-64.85964844 29.46122314 -63.87383789 28.91731934 -62.8581543 28.35693359 C-61.80982422 27.78579834 -60.76149414 27.21466309 -59.68139648 26.6262207 C-50.82102239 21.73762602 -42.03078863 16.75357469 -33.30639648 11.6262207 C-30.40310187 9.93206731 -27.49866945 8.23988044 -24.59399414 6.5480957 C-23.01469744 5.62428159 -21.4382951 4.69547836 -19.86645508 3.7590332 C-18.08532008 2.69827231 -16.29028475 1.66094035 -14.49389648 0.6262207 C-13.58510742 0.09125977 -12.67631836 -0.44370117 -11.73999023 -0.99487305 C-7.47180658 -2.49215436 -4.09313719 -1.8636093 0 0 Z " fill="#010101" transform="translate(119.056396484375,36.936279296875)"/>
</svg>
