<?xml version="1.0" encoding="UTF-8"?>
<svg version="1.1" xmlns="http://www.w3.org/2000/svg" width="256" height="256">
<path d="M0 0 C2.44746563 1.2030849 4.73162864 2.42104808 7.0625 3.8125 C7.66126953 4.15603516 8.26003906 4.49957031 8.87695312 4.85351562 C12.50317507 6.97046666 15.78859769 9.29853681 19 12 C17.59744232 16.20767305 14.65180342 17.14516137 10.9375 19.125 C9.46992488 19.92815303 8.00248057 20.73154511 6.53515625 21.53515625 C5.40424561 22.14834717 5.40424561 22.14834717 4.25048828 22.77392578 C0.77241312 24.66879381 -2.67585943 26.61561604 -6.125 28.5625 C-6.78894775 28.93584473 -7.45289551 29.30918945 -8.13696289 29.69384766 C-13.58345408 32.75720747 -19.00756524 35.85854819 -24.4296875 38.96484375 C-28.98716099 41.56929608 -33.5682247 44.13175445 -38.14892578 46.69506836 C-43.3986989 49.64042403 -48.5820956 52.68488305 -53.7421875 55.78515625 C-56 57 -56 57 -58 57 C-58 76.8 -58 96.6 -58 117 C-56.35 117.66 -54.7 118.32 -53 119 C-51.38157544 119.82683332 -49.77808232 120.68329623 -48.1875 121.5625 C-47.2284375 122.09230469 -46.269375 122.62210937 -45.28125 123.16796875 C-14.03607024 140.61319411 -14.03607024 140.61319411 -10.25439453 143.18896484 C-7.20994769 145.18216394 -5.61885524 146.10686418 -1.96875 145.4765625 C1.25818766 143.87158561 4.39035726 142.19864563 7.5 140.375 C8.74211617 139.65222115 9.9843057 138.92956837 11.2265625 138.20703125 C11.8546582 137.83916504 12.48275391 137.47129883 13.12988281 137.09228516 C17.77014547 134.38203253 22.4464873 131.73364801 27.11572266 129.07373047 C28.44136553 128.31833045 29.76651667 127.56206717 31.09130859 126.80517578 C33.2464854 125.57510074 35.40420063 124.34958631 37.5625 123.125 C38.56289307 122.5527771 38.56289307 122.5527771 39.58349609 121.96899414 C43.0232536 120.0234715 46.30928008 118.47628797 50 117 C50 97.53 50 78.06 50 58 C41.84682622 62.3901705 33.73530635 66.8024943 25.6875 71.375 C24.70273682 71.93010254 23.71797363 72.48520508 22.70336914 73.05712891 C18.16463126 75.61808655 13.64303865 78.19756642 9.171875 80.875 C8.44911377 81.30119629 7.72635254 81.72739258 6.98168945 82.16650391 C5.66206963 82.94664461 4.34999197 83.73975437 3.04760742 84.54833984 C0.34618917 86.13171146 -1.6675408 86.99262226 -4.81640625 87.0625 C-9.51549865 85.49421395 -13.61448303 83.12741207 -17.875 80.625 C-18.75414063 80.13 -19.63328125 79.635 -20.5390625 79.125 C-21.36921875 78.64289063 -22.199375 78.16078125 -23.0546875 77.6640625 C-23.81249512 77.22529785 -24.57030273 76.7865332 -25.35107422 76.33447266 C-25.89521973 75.89409668 -26.43936523 75.4537207 -27 75 C-27 74.01 -27 73.02 -27 72 C-25.86304688 71.3709375 -24.72609375 70.741875 -23.5546875 70.09375 C-13.99559972 64.79817351 -4.47525778 59.44440803 5 54 C17.18153661 47.01721986 17.18153661 47.01721986 23.015625 43.7421875 C24.03209106 43.17141479 24.03209106 43.17141479 25.0690918 42.58911133 C26.43119486 41.82613304 27.79462634 41.06552108 29.15942383 40.30737305 C32.30065206 38.55526149 35.40004863 36.77334127 38.43359375 34.83984375 C39.46613281 34.19144531 40.49867188 33.54304688 41.5625 32.875 C42.45066406 32.29492188 43.33882813 31.71484375 44.25390625 31.1171875 C48.04104979 29.57647192 50.04567149 29.96591828 54 31 C57.18146459 32.38777004 60.17444195 34.03109137 63.1875 35.75 C63.98091797 36.18054688 64.77433594 36.61109375 65.59179688 37.0546875 C70.04737545 39.55370218 73.14156301 41.64092874 76 46 C76.38717415 48.80559357 76.54818021 51.21530603 76.51757812 54.015625 C76.5245874 54.80811646 76.53159668 55.60060791 76.53881836 56.41711426 C76.55637792 59.02843596 76.54478337 61.63866788 76.53125 64.25 C76.53394551 66.06933805 76.53782843 67.88867469 76.54284668 69.70800781 C76.54873895 73.51771789 76.5401876 77.32705239 76.52148438 81.13671875 C76.49869488 86.01611223 76.51181943 90.89462562 76.53577423 95.77398682 C76.5502396 99.52985241 76.54562285 103.28550991 76.53526306 107.04138184 C76.53259781 108.8402924 76.53585844 110.63922197 76.54518127 112.43811035 C76.55535922 114.95403978 76.53982961 117.46855101 76.51757812 119.984375 C76.52567505 120.72530396 76.53377197 121.46623291 76.54211426 122.22961426 C76.46237639 127.10473057 75.45896882 129.5758689 72 133 C69.40063477 134.75415039 69.40063477 134.75415039 66.44140625 136.34765625 C65.34344727 136.94690918 64.24548828 137.54616211 63.11425781 138.16357422 C62.53502563 138.47325134 61.95579346 138.78292847 61.35900879 139.10198975 C59.53573643 140.07680925 57.71973448 141.06406184 55.90527344 142.05517578 C54.05414677 143.06621596 52.20269335 144.0765742 50.34909058 145.08306885 C44.77559573 148.10994364 39.25290579 151.22158005 33.75 154.375 C32.90010498 154.86121826 32.05020996 155.34743652 31.17456055 155.84838867 C26.03826196 158.7982797 20.94453146 161.81203589 15.875 164.875 C14.6864632 165.58898346 13.49767196 166.30254358 12.30859375 167.015625 C10.15034504 168.3100646 7.99646327 169.61182165 5.84765625 170.921875 C4.88730469 171.48390625 3.92695313 172.0459375 2.9375 172.625 C2.12152344 173.11226562 1.30554688 173.59953125 0.46484375 174.1015625 C-2.81712623 175.29784316 -4.64892073 174.93369766 -8 174 C-10.91015625 172.57421875 -10.91015625 172.57421875 -14.0625 170.6875 C-15.30172333 169.95642068 -16.54133166 169.22599371 -17.78125 168.49609375 C-18.45414062 168.09632324 -19.12703125 167.69655273 -19.8203125 167.28466797 C-23.87515766 164.89481635 -27.97250923 162.57899631 -32.0625 160.25 C-33.87124394 159.21640862 -35.67983569 158.18255087 -37.48828125 157.1484375 C-41.12983743 155.06736394 -44.77317104 152.9894532 -48.41796875 150.9140625 C-52.77825297 148.4306429 -57.13343149 145.93847531 -61.48535156 143.44042969 C-63.16262431 142.4796618 -64.84166821 141.52197938 -66.52246094 140.56738281 C-68.89461097 139.21950634 -71.26039265 137.86105369 -73.625 136.5 C-74.32979492 136.10280762 -75.03458984 135.70561523 -75.76074219 135.29638672 C-79.31714312 133.23374485 -81.98175979 131.60520461 -84 128 C-84.29520666 125.28885555 -84.42043972 122.80813221 -84.40405273 120.09790039 C-84.41091599 119.30555496 -84.41777924 118.51320953 -84.42485046 117.69685364 C-84.44313674 115.0802717 -84.43927839 112.46428832 -84.43359375 109.84765625 C-84.43815478 108.02688909 -84.44346012 106.20612365 -84.44947815 104.38536072 C-84.45841291 100.56974289 -84.45598211 96.75433433 -84.44604492 92.9387207 C-84.43455654 88.05148305 -84.45476269 83.16496806 -84.48396206 78.27782536 C-84.50231779 74.5176892 -84.50203283 70.7577264 -84.49632454 66.99755669 C-84.49617124 65.19584578 -84.50222289 63.3941232 -84.51461601 61.59245491 C-84.52951211 59.07167505 -84.51885991 56.55223246 -84.50170898 54.03149414 C-84.51137695 53.28899414 -84.52104492 52.54649414 -84.53100586 51.78149414 C-84.46152369 46.89892222 -83.46615688 44.4280367 -80 41 C-77.40063477 39.24584961 -77.40063477 39.24584961 -74.44140625 37.65234375 C-73.34344727 37.05309082 -72.24548828 36.45383789 -71.11425781 35.83642578 C-70.53502563 35.52674866 -69.95579346 35.21707153 -69.35900879 34.89801025 C-67.53573643 33.92319075 -65.71973448 32.93593816 -63.90527344 31.94482422 C-62.05414677 30.93378404 -60.20269335 29.9234258 -58.34909058 28.91693115 C-52.77559573 25.89005636 -47.25290579 22.77841995 -41.75 19.625 C-40.90010498 19.13878174 -40.05020996 18.65256348 -39.17456055 18.15161133 C-34.03826196 15.2017203 -28.94453146 12.18796411 -23.875 9.125 C-22.6864632 8.41101654 -21.49767196 7.69745642 -20.30859375 6.984375 C-18.15034504 5.6899354 -15.99646327 4.38817835 -13.84765625 3.078125 C-12.88730469 2.51609375 -11.92695312 1.9540625 -10.9375 1.375 C-10.12152344 0.88773438 -9.30554688 0.40046875 -8.46484375 -0.1015625 C-5.15567687 -1.30775645 -3.38282376 -0.95748254 0 0 Z " fill="#000000" transform="translate(132,41)"/>
</svg>
